<?xml version="1.0"?>
<svg version="1.1" xmlns="http://www.w3.org/2000/svg" width="400px" height="50px" style=""><path fill="#35698f" d="M50.93994140625,42.10693359375q0-0.1025390625,0.068359375-0.726318359375t0.179443359375-1.52099609375t0.247802734375-1.93115234375t0.2392578125-1.956787109375t0.179443359375-1.62353515625t0.076904296875-0.93994140625q-0.13671875-0.068359375-0.333251953125-0.196533203125t-0.196533203125-0.299072265625q0-0.2392578125,0.230712890625-0.384521484375t0.401611328125-0.213623046875q0.068359375-0.87158203125,0.1708984375-2.4267578125t0.316162109375-3.358154296875t0.59814453125-3.6572265625t1.016845703125-3.36669921875t1.52099609375-2.469482421875t2.1875-0.95703125t2.1533203125,0.8203125t1.392822265625,2.13623046875t0.8203125,2.92236328125t0.42724609375,3.19580078125t0.179443359375,2.9736328125t0.068359375,2.2216796875q0.0341796875,0.52978515625,0.25634765625,0.709228515625t0.487060546875,0.247802734375t0.478515625,0.15380859375t0.213623046875,0.42724609375q0,0.39306640625-0.478515625,0.546875t-0.751953125,0.18798828125q0.1708984375,2.13623046875,0.469970703125,4.2041015625t0.794677734375,4.169921875q0.068359375,0.39306640625,0.18798828125,0.794677734375t0.11962890625,0.777587890625q0,0.2734375-0.18798828125,0.452880859375t-0.487060546875,0.281982421875t-0.59814453125,0.13671875t-0.504150390625,0.0341796875q-0.76904296875,0-1.298828125-0.29052734375t-0.70068359375-1.11083984375q-0.46142578125-2.20458984375-0.90576171875-4.63134765625q-0.3759765625-2.10205078125-0.3759765625-4.08447265625q0-0.3076171875,0.01708984375-0.615234375q-1.435546875,0-2.88818359375,0.068359375t-2.78564453125,0.5126953125q-0.0341796875,0.46142578125-0.1708984375,1.7431640625t-0.3076171875,2.75146484375t-0.350341796875,2.811279296875t-0.213623046875,1.905517578125q-0.0341796875,0.2392578125-0.350341796875,0.452880859375t-0.68359375,0.230712890625t-0.6494140625-0.230712890625t-0.281982421875-0.880126953125z M54.1357421875,31.75048828125q1.3330078125-0.3076171875,2.674560546875-0.35888671875t2.708740234375-0.11962890625q-0.068359375-0.42724609375-0.0341796875-0.880126953125t0.0341796875-0.914306640625q0-1.00830078125-0.05126953125-2.34130859375t-0.15380859375-2.7001953125t-0.264892578125-2.691650390625t-0.367431640625-2.3583984375t-0.435791015625-1.649169921875t-0.504150390625-0.615234375q-0.52978515625,0.0341796875-0.999755859375,0.914306640625t-0.8544921875,2.23876953125t-0.70068359375,3.0419921875t-0.52978515625,3.289794921875t-0.350341796875,2.99072265625t-0.1708984375,2.1533203125z M68.160864257812,18.72802734375q0-1.1962890625,0.41015625-1.6064453125t1.14501953125-0.41015625q0.205078125,0,0.435791015625,0.0341796875t0.435791015625,0.1025390625q1.14501953125-0.22216796875,2.17041015625-0.22216796875q1.65771484375,0,3.0078125,0.5810546875q2.17041015625,0.9228515625,3.5888671875,2.734375t2.0849609375,4.25537109375t0.66650390625,5.00732421875q0,1.435546875-0.196533203125,2.99072265625t-0.760498046875,2.88818359375q-0.49560546875,1.1962890625-1.3671875,2.503662109375t-1.973876953125,2.47802734375t-2.37548828125,2.05078125t-2.572021484375,1.187744140625l0,0.13671875q0,0.341796875-0.179443359375,0.555419921875t-0.435791015625,0.32470703125t-0.589599609375,0.145263671875t-0.623779296875,0.0341796875q-0.1708984375,0-0.487060546875-0.0341796875t-0.615234375-0.128173828125t-0.504150390625-0.247802734375t-0.205078125-0.42724609375q0-3.1103515625-0.162353515625-6.229248046875t-0.367431640625-6.23779296875t-0.367431640625-6.229248046875t-0.162353515625-6.23779296875z M71.390844726562,17.8564453125q0.1708984375,1.640625,0.22216796875,3.272705078125t0.15380859375,3.272705078125q0.2734375,4.23828125,0.63232421875,8.433837890625t0.42724609375,8.433837890625q1.640625-1.07666015625,2.811279296875-2.4609375t1.922607421875-3.0078125t1.102294921875-3.409423828125t0.350341796875-3.682861328125q0-1.3671875-0.2392578125-3.0078125t-0.8203125-3.16162109375t-1.563720703125-2.75146484375t-2.452392578125-1.76025390625q-0.3076171875-0.1025390625-0.743408203125-0.1708984375t-1.392822265625-0.068359375q-0.1025390625,0-0.205078125,0.0341796875t-0.205078125,0.0341796875z M85.621044921875,33.7158203125l0-2.7001953125q0-2.802734375,0.093994140625-5.562744140625t0.162353515625-5.562744140625q0-0.52978515625-0.0341796875-1.17919921875q-0.01708984375-0.18798828125-0.01708984375-0.35888671875q0-0.42724609375,0.068359375-0.83740234375q0.08544921875-0.546875,0.418701171875-0.93994140625t1.102294921875-0.39306640625q0.63232421875,0,0.965576171875,0.13671875t0.469970703125,0.401611328125t0.15380859375,0.66650390625t0.01708984375,0.931396484375q0,2.8369140625-0.068359375,5.69091796875q-0.05126953125,1.89697265625-0.05126953125,3.7939453125q0,0.95703125,0.01708984375,1.9140625q0.0341796875,2.8369140625,0.264892578125,5.673828125t0.777587890625,5.60546875q1.708984375-0.068359375,3.41796875-0.1708984375t3.41796875-0.1025390625q0.1708984375,0,0.487060546875,0.0341796875t0.63232421875,0.11962890625t0.538330078125,0.22216796875t0.22216796875,0.39306640625q0,0.1708984375-0.15380859375,0.29052734375t-0.29052734375,0.18798828125l-0.0341796875,0q-0.2734375,0.13671875-1.085205078125,0.264892578125t-1.845703125,0.196533203125t-2.17041015625,0.11962890625t-2.13623046875,0.08544921875t-1.734619140625,0.05126953125t-0.90576171875,0.01708984375l-0.15380859375,0q-0.41015625,0-0.9228515625-0.13671875q-0.615234375-0.1708984375-0.76904296875-0.66650390625q-0.3076171875-1.2646484375-0.487060546875-2.623291015625t-0.2734375-2.760009765625t-0.093994140625-2.802734375z M101.03044433594,42.10693359375q0-0.1025390625,0.068359375-0.726318359375t0.179443359375-1.52099609375t0.247802734375-1.93115234375t0.2392578125-1.956787109375t0.179443359375-1.62353515625t0.076904296875-0.93994140625q-0.13671875-0.068359375-0.333251953125-0.196533203125t-0.196533203125-0.299072265625q0-0.2392578125,0.230712890625-0.384521484375t0.401611328125-0.213623046875q0.068359375-0.87158203125,0.1708984375-2.4267578125t0.316162109375-3.358154296875t0.59814453125-3.6572265625t1.016845703125-3.36669921875t1.52099609375-2.469482421875t2.1875-0.95703125t2.1533203125,0.8203125t1.392822265625,2.13623046875t0.8203125,2.92236328125t0.42724609375,3.19580078125t0.179443359375,2.9736328125t0.068359375,2.2216796875q0.0341796875,0.52978515625,0.25634765625,0.709228515625t0.487060546875,0.247802734375t0.478515625,0.15380859375t0.213623046875,0.42724609375q0,0.39306640625-0.478515625,0.546875t-0.751953125,0.18798828125q0.1708984375,2.13623046875,0.469970703125,4.2041015625t0.794677734375,4.169921875q0.068359375,0.39306640625,0.18798828125,0.794677734375t0.11962890625,0.777587890625q0,0.2734375-0.18798828125,0.452880859375t-0.487060546875,0.281982421875t-0.59814453125,0.13671875t-0.504150390625,0.0341796875q-0.76904296875,0-1.298828125-0.29052734375t-0.70068359375-1.11083984375q-0.46142578125-2.20458984375-0.90576171875-4.63134765625q-0.3759765625-2.10205078125-0.3759765625-4.08447265625q0-0.3076171875,0.01708984375-0.615234375q-1.435546875,0-2.88818359375,0.068359375t-2.78564453125,0.5126953125q-0.0341796875,0.46142578125-0.1708984375,1.7431640625t-0.3076171875,2.75146484375t-0.350341796875,2.811279296875t-0.213623046875,1.905517578125q-0.0341796875,0.2392578125-0.350341796875,0.452880859375t-0.68359375,0.230712890625t-0.6494140625-0.230712890625t-0.281982421875-0.880126953125z M104.22624511719,31.75048828125q1.3330078125-0.3076171875,2.674560546875-0.35888671875t2.708740234375-0.11962890625q-0.068359375-0.42724609375-0.0341796875-0.880126953125t0.0341796875-0.914306640625q0-1.00830078125-0.05126953125-2.34130859375t-0.15380859375-2.7001953125t-0.264892578125-2.691650390625t-0.367431640625-2.3583984375t-0.435791015625-1.649169921875t-0.504150390625-0.615234375q-0.52978515625,0.0341796875-0.999755859375,0.914306640625t-0.8544921875,2.23876953125t-0.70068359375,3.0419921875t-0.52978515625,3.289794921875t-0.350341796875,2.99072265625t-0.1708984375,2.1533203125z M118.285546875,26.07666015625q0-0.66650390625,0.042724609375-1.956787109375t0.128173828125-2.691650390625t0.22216796875-2.623291015625t0.39306640625-1.751708984375q0.13671875-0.2734375,0.418701171875-0.367431640625t0.555419921875-0.093994140625q0.1708984375,0,0.572509765625,0.093994140625t0.401611328125,0.367431640625q0,0.42724609375-0.1025390625,1.614990234375t-0.18798828125,2.725830078125t-0.11962890625,3.19580078125l0,0.73486328125q0,1.24755859375,0.08544921875,2.34130859375q0.11962890625,1.4013671875,0.452880859375,2.30712890625t0.999755859375,0.90576171875q0.90576171875,0,1.69189453125-0.538330078125t1.435546875-1.4013671875t1.170654296875-1.93115234375t0.888671875-2.10205078125t0.615234375-1.905517578125t0.350341796875-1.3671875q0.1025390625-0.56396484375,0.179443359375-1.50390625t0.247802734375-1.845703125t0.606689453125-1.572265625t1.273193359375-0.66650390625q0.49560546875,0,0.948486328125,0.1708984375t0.589599609375,0.73486328125q-0.2734375,1.04248046875-0.46142578125,2.896728515625t-0.299072265625,3.887939453125t-0.162353515625,3.939208984375t-0.05126953125,3.101806640625q0,1.3330078125,0.0341796875,3.255615234375t0.11962890625,3.973388671875t0.196533203125,3.990478515625t0.247802734375,3.238525390625q0.13671875,0.2734375,0.13671875,0.63232421875q0,0.42724609375-0.1708984375,0.66650390625t-0.469970703125,0.35888671875t-0.6494140625,0.15380859375t-0.675048828125,0.0341796875q-0.49560546875,0-1.102294921875-0.1708984375t-0.743408203125-0.70068359375q-0.1708984375-0.63232421875-0.281982421875-1.666259765625t-0.162353515625-2.255859375t-0.08544921875-2.554931640625t-0.0341796875-2.554931640625t0.01708984375-2.27294921875t0.01708984375-1.717529296875q0-1.298828125,0.05126953125-2.554931640625t0.11962890625-2.554931640625q-0.42724609375,0.87158203125-0.999755859375,1.768798828125t-1.307373046875,1.632080078125t-1.640625,1.204833984375t-1.96533203125,0.469970703125q-1.3671875,0-2.0849609375-0.73486328125t-1.04248046875-1.820068359375t-0.367431640625-2.30712890625t-0.042724609375-2.213134765625z"/><path fill="#" d=""/></svg>
